# This file uses centimeters as units for non-parametric coordinates.

mtllib P4.mtl
g default
v 0.690766 -0.027258 1.033280
v 0.692359 0.356217 0.584375
v -1.273667 0.453942 0.152707
v -1.354466 -0.078857 0.394870
v 0.260636 -1.112116 0.935212
v -1.028911 -1.186273 0.522413
v 0.521678 -1.371954 0.032460
v 1.246927 -0.525705 -0.061826
v -0.368337 0.888863 0.463548
v -0.560295 0.285572 1.267248
v -0.412462 -1.135238 0.870938
v -1.298825 -0.733984 0.566253
v -0.510335 -0.538227 1.198361
v 0.453104 -0.714761 1.150971
v 0.995978 -1.042547 -0.040751
v 1.348682 -0.286018 -0.423694
v 0.017941 0.237042 -1.240428
v -0.918219 -0.029686 -0.954316
v -0.973700 -0.551632 -0.846188
v -0.879456 -1.152755 -0.679646
v -0.556744 -1.384119 -0.429682
v -0.041077 -0.741426 -1.387412
v 0.948625 -1.048389 -0.624696
v 0.396370 -1.376421 -0.407583
v -0.251396 -1.290094 -0.941292
v -0.002705 -1.429292 -0.051260
v 0.442828 -1.320083 0.558024
v 0.844415 -0.908106 0.608941
v 1.078075 -0.311311 0.486723
v 1.034872 0.226210 0.146303
v -0.162186 0.606201 -0.396502
v -1.115310 0.268252 -0.465269
v -1.227046 -0.328188 -0.231663
v -1.201345 -0.941726 -0.071769
v -0.878457 -1.356783 0.089314
v -0.231823 -1.414791 0.401534
v 0.182937 -1.426056 0.122960
v 0.071701 -1.394865 0.508378
v -0.061818 -1.111618 0.942185
v -0.084097 -0.566114 1.240898
v 0.101041 0.183230 1.254301
v 0.273762 0.699559 0.553547
v 0.492816 0.557064 -0.192186
v 0.804487 0.140772 -1.043896
v 0.510339 -0.886362 -1.084182
v 0.101950 -1.347355 -0.741166
v -0.269541 -1.417329 -0.247727
v -0.547314 -1.412366 0.250920
v -0.771517 -1.172870 0.729718
v -0.986117 -0.615841 1.016803
v -1.275142 0.152657 0.953881
v -1.150247 0.754996 0.233990
v -0.864195 0.624476 -0.586050
v -0.730262 0.115372 -1.209517
v -0.617046 -0.616529 -1.282781
v -0.562933 -1.166456 -1.003252
vt 0.000000 0.000000
vt 0.684523 0.000000
vt 1.000000 0.436853
vt 0.481124 0.732170
vt 0.000000 0.000000
vt 1.000000 0.000000
vt 1.000000 1.000000
vt 0.000000 1.000000
vt 0.000000 0.000000
vt 1.000000 0.000000
vt 1.000000 1.000000
vt 0.000000 1.000000
vt 0.850279 0.229529
vt 0.252790 0.384693
vt 0.474585 1.000000
vt 0.474585 0.000000
vt 0.000000 0.446221
vt 0.474585 0.446221
vt 1.000000 0.446221
vt 1.000000 0.553779
vt 0.000000 0.553779
vt 0.000000 0.000000
vt 1.000000 0.000000
vt 1.000000 1.000000
vt 0.000000 1.000000
vt 0.000000 0.000000
vt 1.000000 0.000000
vt 1.000000 1.000000
vt 0.000000 1.000000
vt 0.000000 0.000000
vt 1.000000 0.000000
vt 1.000000 1.000000
vt 0.000000 1.000000
vt 0.000000 0.000000
vt 1.000000 0.000000
vt 1.000000 1.000000
vt 0.000000 1.000000
vt 0.000000 0.000000
vt 1.000000 0.000000
vt 1.000000 1.000000
vt 0.000000 1.000000
vt 0.000000 0.000000
vt 1.000000 0.000000
vt 1.000000 1.000000
vt 0.000000 1.000000
vt 0.000000 0.000000
vt 1.000000 0.000000
vt 1.000000 1.000000
vt 0.000000 1.000000
vt 0.000000 0.000000
vt 1.000000 0.000000
vt 1.000000 1.000000
vt 0.000000 1.000000
vt 0.000000 0.000000
vt 1.000000 0.000000
vt 1.000000 1.000000
vt 0.000000 1.000000
vt 0.000000 0.000000
vt 1.000000 0.000000
vt 1.000000 1.000000
vt 0.000000 1.000000
vt 0.000000 0.000000
vt 1.000000 0.000000
vt 1.000000 1.000000
vt 0.000000 1.000000
vt 0.000000 0.000000
vt 1.000000 0.000000
vt 1.000000 1.000000
vt 0.000000 1.000000
vt 0.000000 0.000000
vt 1.000000 0.500000
vt 0.000000 1.000000
vt 0.000000 0.000000
vt 1.000000 0.000000
vt 1.000000 1.000000
vt 0.000000 1.000000
vt 0.000000 0.000000
vt 1.000000 0.500000
vt 0.000000 1.000000
vt 0.000000 0.000000
vt 1.000000 0.000000
vt 1.000000 1.000000
vt 0.000000 1.000000
vt 0.000000 0.000000
vt 1.000000 0.000000
vt 1.000000 1.000000
vt 0.000000 1.000000
vt 0.585719 1.000000
vt 0.585719 0.553779
vt 0.585719 0.000000
vt 0.414281 0.000000
vt 0.414281 1.000000
vt 0.585719 1.000000
vt 0.585719 0.000000
vt 0.414281 0.000000
vt 0.414281 1.000000
vt 0.585719 1.000000
vt 0.585719 0.000000
vt 0.585719 1.000000
vt 0.585719 1.000000
vt 0.585719 0.000000
vt 0.585719 0.000000
vt 0.414281 0.000000
vt 0.414281 1.000000
vt 0.414281 0.000000
vt 0.414281 1.000000
vt 0.429805 0.785097
vt 1.000000 0.429805
vt 0.414281 0.429805
vt 0.700411 0.000000
vt 0.000000 0.429805
vt 0.700411 0.446221
vt 0.144139 0.219350
vt 0.700411 1.000000
vt 0.779036 0.130876
vt 1.000000 0.429805
vt 0.585719 0.429805
vt 0.000000 0.429805
vt 0.570195 1.000000
vt 0.570195 0.000000
vt 0.429805 0.000000
vt 0.429805 1.000000
vt 1.000000 0.429805
vt 0.000000 0.429805
vt 1.000000 0.429805
vt 0.414281 0.429805
vt 0.203979 0.000000
vt 0.000000 0.429805
vt 0.203979 0.446221
vt 0.382985 0.582823
vt 0.203979 1.000000
vt 0.935649 0.347744
vt 0.000000 0.570195
vt 0.414281 0.570195
vt 1.000000 0.570195
vt 0.000000 0.570195
vt 1.000000 0.570195
vt 0.000000 0.570195
vt 1.000000 0.570195
vt 0.000000 0.570195
vn 0.256187 0.747797 0.612510
vn 0.257116 0.747508 0.612472
vn -0.130139 0.797292 0.589398
vn -0.132639 0.797194 0.588972
vn -0.226307 -0.068925 0.971614
vn -0.218082 -0.214908 0.951974
vn 0.056522 -0.181942 0.981683
vn 0.120434 -0.028283 0.992318
vn 0.760152 -0.433573 0.483925
vn 0.827900 -0.244272 0.504888
vn 0.766425 -0.165323 0.620694
vn 0.712061 -0.311581 0.629195
vn -0.508107 0.714289 0.481268
vn -0.513591 0.711915 0.478959
vn -0.962696 0.253849 0.093688
vn -0.962696 0.253849 0.093688
vn -0.818120 -0.286237 0.498747
vn -0.562861 -0.259531 0.784749
vn -0.646780 -0.121166 0.752990
vn -0.902416 -0.152133 0.403115
vn -0.605232 -0.494953 0.623471
vn -0.420830 -0.512193 0.748706
vn -0.061303 -0.485471 0.872101
vn -0.197001 -0.499166 0.843815
vn 0.603433 -0.688739 0.401881
vn 0.540652 -0.593342 0.596356
vn 0.807924 0.404095 0.428913
vn 0.877782 0.307958 0.366960
vn 0.882242 0.300761 0.362205
vn 0.807924 0.404095 0.428913
vn 0.341364 0.933882 -0.106463
vn 0.410623 0.886873 -0.211767
vn 0.205612 0.933529 -0.293680
vn 0.219923 0.955861 -0.194844
vn -0.247138 0.921534 -0.299495
vn -0.234755 0.873987 -0.425484
vn -0.817270 0.400243 -0.414578
vn -0.822058 0.447253 -0.352399
vn -0.948750 0.042017 -0.313222
vn -0.949664 0.042878 -0.310323
vn -0.967783 0.062214 -0.243979
vn -0.967783 0.062214 -0.243979
vn -0.741569 -0.664411 -0.092917
vn -0.722594 -0.682075 -0.112388
vn -0.826059 -0.563530 0.007793
vn -0.826059 -0.563530 0.007793
vn -0.959192 -0.141487 -0.244812
vn -0.954773 -0.146890 -0.258519
vn -0.985243 -0.099531 -0.139249
vn -0.985243 -0.099531 -0.139249
vn -0.317073 0.078323 -0.945161
vn -0.281505 0.086340 -0.955667
vn -0.781609 -0.053271 -0.621490
vn -0.781609 -0.053271 -0.621490
vn 0.527090 -0.071349 -0.846809
vn 0.532527 -0.074554 -0.843123
vn 0.353756 0.025012 -0.935003
vn 0.353756 0.025012 -0.935003
vn 0.893005 -0.446169 -0.058947
vn 0.893005 -0.446169 -0.058947
vn 0.893005 -0.446169 -0.058947
vn 0.893005 -0.446169 -0.058947
vn 0.521589 -0.849495 -0.079396
vn 0.521589 -0.849495 -0.079396
vn 0.521589 -0.849495 -0.079396
vn 0.521589 -0.849495 -0.079396
vn 0.232350 -0.683345 -0.692136
vn 0.292087 -0.739935 -0.605955
vn 0.289438 -0.737569 -0.610097
vn 0.232350 -0.683345 -0.692136
vn -0.482524 -0.445702 -0.754003
vn -0.462967 -0.452693 -0.762057
vn -0.723716 -0.328477 -0.606909
vn -0.723716 -0.328477 -0.606909
vn -0.331312 -0.883318 -0.331634
vn -0.331312 -0.883318 -0.331634
vn -0.331312 -0.883318 -0.331634
vn -0.331312 -0.883318 -0.331634
vn -0.030791 -0.982976 -0.181134
vn -0.030791 -0.982976 -0.181134
vn -0.000005 -0.988869 -0.148791
vn 0.000336 -0.988923 -0.148431
vn 0.115869 -0.992189 -0.046211
vn 0.115869 -0.992189 -0.046211
vn 0.115869 -0.992189 -0.046211
vn 0.115869 -0.992189 -0.046211
vn -0.257620 -0.916444 0.306206
vn -0.188990 -0.973752 0.126848
vn -0.139535 -0.973627 0.180500
vn -0.190409 -0.906007 0.378016
vn -0.080812 -0.858317 0.506717
vn -0.046200 -0.937411 0.345147
vn 0.037600 -0.935649 0.350923
vn -0.022615 -0.854312 0.519269
vn 0.791658 -0.531561 0.301199
vn 0.630649 -0.737827 0.240608
vn 0.879257 -0.339641 0.333994
vn 0.940328 0.186393 0.284676
vn 0.940328 0.186393 0.284676
vn 0.193498 0.910433 -0.365609
vn 0.443649 0.849842 -0.284507
vn -0.205114 0.806664 -0.554275
vn -0.804843 0.340227 -0.486286
vn -0.922324 0.019987 -0.385901
vn -0.922324 0.019987 -0.385901
vn -0.912766 -0.187643 -0.362833
vn -0.912766 -0.187643 -0.362833
vn -0.627248 -0.752975 -0.198971
vn -0.627248 -0.752975 -0.198971
vn -0.080343 -0.996568 -0.019926
vn -0.120495 -0.991928 -0.039500
vn 0.111033 -0.988911 0.098627
vn 0.012973 -0.998133 0.059678
vn 0.126771 -0.935405 0.330072
vn 0.184274 -0.974595 0.127312
vn 0.057552 -0.843834 0.533509
vn 0.191182 -0.162917 0.967940
vn 0.015344 -0.481062 0.876552
vn 0.263729 -0.007594 0.964567
vn 0.472085 0.658045 0.586611
vn 0.472085 0.658045 0.586611
vn 0.638338 0.762182 -0.107715
vn 0.554258 0.829221 0.072046
vn 0.664964 0.724677 -0.180736
vn 0.681605 -0.168402 -0.712078
vn 0.681605 -0.168402 -0.712078
vn 0.347867 -0.786163 -0.510819
vn 0.347867 -0.786163 -0.510819
vn 0.033929 -0.993039 -0.112793
vn 0.033929 -0.993039 -0.112793
vn -0.090746 -0.965981 0.242167
vn -0.027995 -0.999593 0.005535
vn -0.139085 -0.892460 0.429151
vn -0.007564 0.970522 -0.240895
vn -0.006379 0.927842 -0.372919
vn -0.004882 0.857582 -0.514324
vn -0.100744 0.123927 -0.987164
vn -0.100744 0.123927 -0.987164
vn -0.186421 -0.522894 -0.831763
vn -0.186421 -0.522894 -0.831763
s 1
g P4
usemtl initialShadingGroup
f 41/113/1 42/115/2 9/13/3 10/14/4
s 2
f 10/15/5 13/18/6 40/112/7 41/114/8
s 3
f 28/89/9 29/90/10 1/10/11 14/20/12
s 1
f 51/130/13 52/132/14 3/3/15 4/4/16
s 2
f 12/17/17 50/129/18 51/131/19 4/8/20
f 6/5/21 49/127/22 50/129/18 12/17/17
f 39/110/23 40/112/7 13/18/6 11/16/24
s 3
f 27/88/25 28/89/9 14/20/12 5/11/26
s 5
f 1/22/27 29/91/28 30/92/29 2/25/30
s 6
f 42/116/31 43/117/32 31/94/33 9/27/34
s 7
f 52/133/35 53/134/36 32/96/37 3/33/38
s 8
f 32/97/39 33/98/40 4/35/41 3/36/42
s 9
f 34/100/43 35/102/44 6/39/45 12/40/46
s 10
f 33/99/47 34/101/48 12/43/49 4/44/50
s 11
f 54/136/51 55/137/52 19/48/53 18/49/54
s 12
f 44/119/55 45/120/56 22/51/57 17/52/58
s off
f 23/54/59 16/55/60 8/56/61 15/57/62
f 24/58/63 23/59/64 15/60/65 7/61/66
s 13
f 22/62/67 45/121/68 46/122/69 25/65/70
s 14
f 55/138/71 56/139/72 20/68/73 19/69/74
s off
f 25/70/75 21/71/76 20/72/77 56/140/78
s 15
f 21/73/79 25/74/80 46/123/81 47/124/82
s off
f 24/77/83 7/78/84 37/107/85 26/79/86
s 16
f 6/80/87 35/103/88 48/126/89 49/128/90
s 17
f 11/84/91 36/105/92 38/109/93 39/111/94
s 3
f 15/21/95 28/89/9 27/88/25 7/12/96
f 8/9/97 29/90/10 28/89/9 15/21/95
s 5
f 30/92/29 29/91/28 8/23/98 16/24/99
s 6
f 17/26/100 31/94/33 43/117/32 44/118/101
s 7
f 32/96/37 53/134/36 54/135/102 18/32/103
s 8
f 19/34/104 33/98/40 32/97/39 18/37/105
s 10
f 20/42/106 34/101/48 33/99/47 19/45/107
s 9
f 21/38/108 35/102/44 34/100/43 20/41/109
s 16
f 47/125/110 48/126/89 35/103/88 21/81/111
s 17
f 37/108/112 38/109/93 36/105/92 26/85/113
f 27/106/114 38/109/93 37/108/112 7/86/115
f 39/111/94 38/109/93 27/106/114 5/87/116
s 2
f 14/19/117 40/112/7 39/110/23 5/6/118
f 41/114/8 40/112/7 14/19/117 1/7/119
s 1
f 1/1/120 2/2/121 42/115/2 41/113/1
s 6
f 30/93/122 43/117/32 42/116/31 2/28/123
f 44/118/101 43/117/32 30/93/122 16/29/124
s 12
f 23/50/125 45/120/56 44/119/55 16/53/126
s 13
f 46/122/69 45/121/68 23/63/127 24/64/128
s 15
f 47/124/82 46/123/81 24/75/129 26/76/130
s 16
f 36/104/131 48/126/89 47/125/110 26/82/132
f 49/128/90 48/126/89 36/104/131 11/83/133
s 2
f 50/129/18 49/127/22 11/16/24 13/18/6
f 51/131/19 50/129/18 13/18/6 10/15/5
s 1
f 10/14/4 9/13/3 52/132/14 51/130/13
s 7
f 9/30/134 31/95/135 53/134/36 52/133/35
f 54/135/102 53/134/36 31/95/135 17/31/136
s 11
f 17/46/137 22/47/138 55/137/52 54/136/51
s 14
f 22/66/139 25/67/140 56/139/72 55/138/71
